<?xml version="1.0" encoding="UTF-8" standalone="no"?>
<!-- Created with Inkscape (http://www.inkscape.org/) -->

<svg
   width="196.93425mm"
   height="38.005657mm"
   viewBox="0 0 196.93425 38.005657"
   version="1.1"
   id="svg1"
   xml:space="preserve"
   xmlns="http://www.w3.org/2000/svg"
   xmlns:svg="http://www.w3.org/2000/svg"><defs
     id="defs1" /><g
     id="layer1"
     transform="translate(-7.5158903,-94.758535)"><path
       style="fill:#000000;stroke-width:0.61893"
       d="m 10.62745,105.83389 c 0.207155,-0.51895 0.463541,-1.34151 0.592885,-1.90217 0.196133,-0.85015 0.193695,-2.5952 -0.0049,-3.50709 C 10.755198,98.311458 9.6246848,96.773693 8.0312305,96.093408 7.7477977,95.972401 7.5158904,95.826043 7.5158904,95.768166 c 0,-0.165917 0.8068252,-0.686486 1.3299322,-0.858091 0.3652311,-0.119812 0.7043551,-0.154936 1.4605514,-0.151285 0.880045,0.0044 1.063502,0.03182 1.723535,0.258744 1.478786,0.508482 2.420151,1.154243 4.760235,3.265466 0.451401,0.407256 0.978642,0.863985 1.171646,1.014947 0.456789,0.357298 1.489692,0.889973 1.86071,0.959583 0.16038,0.0301 0.291601,0.0818 0.291601,0.11499 0,0.0332 -0.28623,0.14323 -0.636066,0.24461 -0.898702,0.26043 -2.37364,0.8534 -3.39588,1.36524 -1.856211,0.92942 -3.288993,1.91893 -4.704171,3.24879 -0.448842,0.42178 -0.786586,0.69302 -0.750546,0.60273 z"
       id="path31" /><path
       style="fill:#000000;stroke-width:0.61893"
       d="m 27.308221,126.40714 c -0.193867,-0.21422 -0.171462,-0.55429 0.04658,-0.70702 0.499346,-0.34975 1.011606,0.14884 0.717508,0.69837 -0.111806,0.20891 -0.578078,0.21419 -0.764086,0.009 z"
       id="path23" /><path
       style="fill:#000000;stroke-width:0.61893"
       d="m 22.889825,129.50835 c -1.976945,-0.34824 -3.854939,-1.05825 -5.351537,-2.02325 l -0.565035,-0.36433 1.32635,-0.65874 1.326351,-0.65873 0.839108,0.20674 c 1.140262,0.28094 2.18026,0.44135 3.547518,0.54718 1.440535,0.1115 1.997363,0.20864 2.188729,0.38183 0.199136,0.18022 0.189711,0.31997 -0.03206,0.4753 -0.146381,0.10253 -0.438155,0.12777 -1.477314,0.12777 -1.198979,0 -1.294906,0.0111 -1.294906,0.14983 0,0.6036 1.886313,1.04256 3.631731,0.84513 0.462686,-0.0523 1.163197,-0.17388 1.556692,-0.27009 0.584846,-0.14301 0.738408,-0.15588 0.841249,-0.0705 0.472443,0.39209 -0.54803,0.98465 -2.277742,1.32263 -1.078886,0.2108 -3.029382,0.20588 -4.259138,-0.0108 z"
       id="path22" /><path
       style="fill:#000000;stroke-width:0.61893"
       d="m 35.276378,130.13323 c -0.695106,-0.24804 -1.754573,-1.27183 -2.730469,-2.6385 -0.467422,-0.65459 -1.314236,-2.22923 -1.642968,-3.05506 -0.124982,-0.31399 -0.164299,-0.34823 -0.355628,-0.30975 -1.423747,0.28638 -2.174442,0.33446 -5.221565,0.33446 -1.715326,0 -3.32826,-0.03 -3.584299,-0.0667 l -0.465525,-0.0667 0.740365,-0.66382 c 1.462401,-1.3112 2.512268,-2.74841 3.103629,-4.24871 0.08932,-0.2266 0.149549,-0.412 0.133844,-0.412 -0.0157,0 -0.225627,0.26502 -0.466495,0.58894 -0.56582,0.76091 -2.296412,2.54601 -3.217409,3.31875 -2.236263,1.87626 -5.528652,3.49103 -7.779986,3.81575 -1.08473,0.15645 -1.644477,-0.0375 -1.751274,-0.60673 -0.163082,-0.86929 0.986204,-3.35222 2.49118,-5.38199 2.278786,-3.0734 5.376691,-5.10816 8.095289,-5.31712 0.376669,-0.0289 0.667716,-0.0804 0.64677,-0.11427 -0.02095,-0.0338 -0.342975,-0.10473 -0.715619,-0.15743 -0.750165,-0.1061 -1.740476,-0.0232 -2.531829,0.21172 -0.826875,0.24556 -2.412376,1.12788 -3.234234,1.79986 l -0.328292,0.26841 -0.246219,-0.20245 c -1.214976,-0.99903 -2.885122,-0.97135 -4.02084,0.0666 -1.292816,1.18156 -1.415438,3.11192 -0.348353,5.48375 l 0.202396,0.44987 -0.164183,0.37086 c -0.0903,0.20397 -0.301592,0.75501 -0.469533,1.22453 l -0.305343,0.85366 -0.417846,-0.52537 c -0.8556895,-1.07588 -1.8838377,-3.14174 -2.3854993,-4.79318 -1.3040739,-4.29292 -0.6756428,-8.55695 1.7720523,-12.02369 0.683089,-0.96748 2.682407,-2.97976 3.62408,-3.64756 2.805445,-1.98956 6.247442,-3.32246 9.776531,-3.7859 1.412002,-0.18542 4.815771,-0.12313 6.360658,0.11641 4.29363,0.66575 9.199913,1.98691 11.545694,3.10903 1.591265,0.76118 2.319193,1.28547 3.821278,2.75224 1.201152,1.17291 1.399342,1.33244 2.010789,1.61847 0.693317,0.32432 1.242067,0.50236 1.088668,0.35322 -0.04514,-0.0439 -0.352194,-0.29479 -0.682341,-0.55755 -0.358987,-0.28572 -0.874455,-0.82697 -1.2824,-1.34656 -0.775379,-0.98757 -1.804154,-2.00615 -2.597232,-2.57146 -1.73474,-1.23656 -4.758871,-2.44497 -8.487637,-3.39156 l -1.723533,-0.43754 0.844483,-0.005 c 3.327475,-0.0161 7.431877,1.22608 10.107129,3.05894 1.147009,0.78582 2.488674,2.20984 3.134391,3.32677 0.122921,0.21262 0.501781,0.59499 0.935168,0.94383 0.791185,0.63685 1.36436,1.37547 1.522177,1.96155 0.127318,0.47283 0.06114,1.13118 -0.143023,1.42288 -0.09189,0.13128 -0.189796,0.43793 -0.217567,0.68146 -0.103283,0.90569 -1.227059,2.50465 -3.005539,4.27643 -2.135388,2.12735 -4.445466,3.74708 -7.409858,5.1955 -0.876642,0.42833 -1.197061,0.62324 -1.165966,0.70927 0.108531,0.30024 0.136455,2.80799 0.03985,3.5786 -0.292738,2.33513 -1.184283,4.20548 -2.129841,4.46814 -0.366594,0.10183 -0.389414,0.10081 -0.768075,-0.0343 z m -5.067285,-7.25549 c 3.248517,-0.4458 5.750914,-1.19129 8.597269,-2.5612 3.06475,-1.47502 5.372781,-3.11413 7.550429,-5.36212 1.148266,-1.18536 2.300646,-2.72437 2.150985,-2.87264 -0.05346,-0.053 -4.164341,-0.53378 -5.356455,-0.6265 -0.550332,-0.0428 -1.89221,-0.0787 -2.98195,-0.0797 -2.752455,-0.002 -4.649624,0.26017 -6.429416,0.89048 -0.382743,0.13555 -0.708638,0.23371 -0.724209,0.21813 -0.01557,-0.0156 0.290396,-0.20203 0.67993,-0.41437 0.389533,-0.21234 0.693169,-0.40114 0.674744,-0.41956 -0.06497,-0.065 -2.053002,0.54906 -2.835432,0.87578 -1.592128,0.66482 -3.209147,1.7055 -4.054843,2.60961 l -0.389826,0.41676 v 0.76596 c 0,1.32742 -0.47592,2.65432 -1.550377,4.32255 l -0.12761,0.19813 1.392986,-0.0533 c 0.766142,-0.0293 1.485319,-0.0752 1.598169,-0.10182 0.132503,-0.0313 0.04528,0.0576 -0.246219,0.25107 -0.643028,0.42675 -1.393477,0.79494 -2.339081,1.14761 -0.999095,0.37262 -1.089448,0.41755 -1.374926,0.68382 -0.168565,0.15723 -0.199813,0.22878 -0.123109,0.2819 0.193766,0.1342 4.597566,0.006 5.888941,-0.17058 z m 2.298044,-12.44251 c 0,-1.02852 1.228017,-1.54338 2.020852,-0.84726 l 0.278123,0.24419 0.122643,-0.29352 c 0.156554,-0.37469 0.154608,-0.57597 -0.0089,-0.92054 -0.411605,-0.8674 -1.994145,-1.5802 -4.09555,-1.8447 -1.183605,-0.14899 -3.966057,-0.0581 -4.986447,0.1628 -1.125575,0.24372 -2.119649,0.62078 -2.494305,0.94613 l -0.315849,0.27428 0.196148,0.21031 c 0.271576,0.29119 1.351718,0.79942 2.443819,1.14988 1.300273,0.41724 3.115126,0.73771 5.813554,1.02653 1.057056,0.11313 1.025913,0.11642 1.025912,-0.1081 z"
       id="path21" /><path
       style="fill:#000000;stroke-width:0.61893"
       d="m 22.708832,131.96604 c -2.953046,-0.31145 -6.112594,-1.58305 -8.606568,-3.46381 -0.304696,-0.22978 -0.553996,-0.44328 -0.553996,-0.47444 0,-0.0312 0.175434,-0.0812 0.38985,-0.11106 0.214416,-0.0299 0.785764,-0.15029 1.269662,-0.2675 l 0.879817,-0.21313 0.638535,0.41524 c 2.154993,1.40138 4.254597,2.25686 6.628412,2.70075 1.068655,0.19984 3.839154,0.24044 4.912039,0.072 1.184405,-0.18595 2.267751,-0.47355 3.45472,-0.91713 0.538305,-0.20117 1.030255,-0.34599 1.093224,-0.32183 0.06342,0.0243 0.102769,0.12575 0.08821,0.22738 -0.06968,0.48645 -2.755901,1.65625 -4.827546,2.1023 -1.502016,0.3234 -3.704459,0.42651 -5.366362,0.25124 z"
       id="path20" /><path
       id="path1"
       style="fill:#d4af37;fill-opacity:1;stroke-width:0.61893"
       d="m 189.95137,132.59953 c -0.5036,-0.10776 -0.95603,-0.22089 -1.00539,-0.25141 -0.0611,-0.0377 -0.0897,-0.7204 -0.0897,-2.14145 v -2.086 l 1.16954,0.0176 c 1.46736,0.0221 1.85389,-0.0875 2.38303,-0.67605 0.27339,-0.30406 0.44712,-0.63365 0.7451,-1.41354 l 0.38859,-1.01703 -3.16386,-8.93958 c -1.74012,-4.91676 -3.16386,-8.95007 -3.16386,-8.96289 0,-0.0128 1.27132,-0.0233 2.82515,-0.0233 h 2.82515 l 0.0843,0.26674 c 0.0463,0.14671 0.7533,2.40811 1.57095,5.02534 0.81767,2.61722 1.49584,4.76778 1.50707,4.779 0.0112,0.0112 0.67981,-2.18555 1.48574,-4.8817 0.80594,-2.69617 1.49744,-4.96675 1.53668,-5.04574 0.0657,-0.13237 0.28009,-0.14364 2.73581,-0.14364 h 2.66448 v 0.3426 c 0,0.39943 -6.86706,20.35182 -7.39052,21.4733 -0.91159,1.95304 -2.27813,3.21231 -3.97659,3.66445 -0.87311,0.23243 -2.08345,0.23755 -3.13162,0.0132 z m -128.062094,-6.5086 c -0.586283,-0.0605 -1.906473,-0.36884 -2.442395,-0.57034 -3.800636,-1.42893 -6.176797,-4.88883 -6.663803,-9.70309 -0.04729,-0.46748 -0.08598,-1.50691 -0.08598,-2.30987 0,-2.34457 0.224899,-3.97052 0.779349,-5.63443 1.592855,-4.78015 5.635548,-7.45589 10.578759,-7.00175 4.261855,0.39155 7.405524,3.03799 8.700686,7.32451 0.526028,1.74097 0.582568,2.25251 0.582568,5.27063 0,2.90284 -0.03008,3.22416 -0.453293,4.84231 -0.888123,3.39572 -2.941708,5.91094 -5.76627,7.0625 -1.557146,0.63484 -3.483557,0.89989 -5.229621,0.71953 z m 2.158869,-4.73968 c 0.839555,-0.16063 1.548966,-0.53787 2.151865,-1.14429 0.605189,-0.60871 0.934916,-1.1702 1.260209,-2.14599 0.392315,-1.17685 0.50246,-2.18899 0.50246,-4.61728 0,-2.94391 -0.198101,-4.08653 -0.960041,-5.5374 -0.785772,-1.49624 -2.232471,-2.35642 -3.96434,-2.3571 -2.3922,-0.002 -4.045511,1.60928 -4.67992,4.558 -0.222127,1.03244 -0.31992,4.2784 -0.169353,5.62115 0.461666,4.11706 2.667152,6.23363 5.85912,5.62291 z m 29.385776,4.71471 c -3.671262,-0.52002 -6.171548,-2.96529 -6.966463,-6.81322 -0.294099,-1.42364 -0.295017,-4.18378 -0.0019,-5.59221 0.471486,-2.26517 1.664492,-4.20946 3.298237,-5.37529 2.675803,-1.90941 7.065871,-1.96316 9.745796,-0.11932 1.354759,0.93211 2.271339,2.2986 2.715069,4.04783 0.22094,0.87095 0.40412,2.36232 0.30263,2.46382 -0.035,0.035 -1.16923,0.0539 -2.52049,0.0419 l -2.456841,-0.0218 -0.02067,-0.28724 c -0.07468,-1.03787 -0.347185,-1.79375 -0.838996,-2.3273 -0.506971,-0.55 -1.021116,-0.74412 -1.980127,-0.74759 -0.741499,-0.002 -0.821115,0.0141 -1.350015,0.2844 -0.955995,0.48859 -1.457035,1.28062 -1.734676,2.74212 -0.171467,0.90259 -0.113813,4.05026 0.08733,4.76756 0.310871,1.10864 0.820899,1.80838 1.628099,2.23368 0.404598,0.21318 0.499792,0.22851 1.418578,0.22851 0.91244,0 1.015891,-0.0163 1.406555,-0.22242 0.766158,-0.40412 1.206431,-1.11388 1.332709,-2.14843 l 0.05122,-0.41963 2.531164,-0.0218 2.53116,-0.0218 -0.0443,0.30897 c -0.0243,0.16994 -0.0684,0.53019 -0.0978,0.80058 -0.3191,2.92736 -2.45706,5.2002 -5.684568,6.0432 -0.720805,0.18827 -2.527835,0.272 -3.351712,0.1553 z m 15.445349,-0.005 c -2.62997,-0.41388 -4.66747,-2.18176 -5.18249,-4.49671 -0.20869,-0.93802 -0.12802,-2.46206 0.17875,-3.37683 0.84574,-2.52197 3.26112,-3.97458 7.09518,-4.26705 0.60842,-0.0464 1.52648,-0.0845 2.04014,-0.0846 l 0.93393,-2e-4 -0.0585,-0.59353 c -0.0991,-1.00552 -0.40995,-1.53568 -1.08047,-1.84266 -0.85222,-0.39015 -2.10776,-0.3323 -2.83794,0.13076 -0.43513,0.27596 -0.63127,0.64601 -0.75336,1.42131 l -0.0875,0.55583 h -2.61878 -2.61877 l 0.0584,-0.67013 c 0.16055,-1.84046 0.77649,-3.05219 2.1288,-4.18795 2.44179,-2.0508 7.08855,-2.4435 9.95372,-0.84121 1.16234,0.65001 2.09477,1.66597 2.57057,2.80082 0.50857,1.21305 0.5088,1.21583 0.57043,7.00211 0.0536,5.03108 0.0649,5.32458 0.22886,5.91586 0.0949,0.34218 0.23099,0.76218 0.3025,0.93335 0.0725,0.1736 0.13003,0.54264 0.13003,0.83465 v 0.52345 h -2.54804 -2.54804 l -0.2006,-0.43089 c -0.11034,-0.23698 -0.20097,-0.48134 -0.20141,-0.54302 -4.6e-4,-0.0647 -0.13859,0.0123 -0.32615,0.18179 -0.76912,0.69486 -1.87601,1.03343 -3.53209,1.0804 -0.60939,0.0173 -1.32814,-0.003 -1.59723,-0.0455 z m 3.5226,-4.74312 c 0.66355,-0.31051 1.1241,-0.66178 1.35279,-1.03181 0.14981,-0.24241 0.16891,-0.40555 0.16891,-1.44334 v -1.17003 l -1.4568,0.0454 c -0.80124,0.025 -1.62819,0.0871 -1.83768,0.13804 -0.5529,0.13454 -1.21702,0.56365 -1.50226,0.97066 -0.20984,0.29942 -0.25224,0.44493 -0.27502,0.94385 -0.0224,0.49029 0.005,0.65137 0.16282,0.95437 0.36008,0.69179 0.89989,0.92434 2.04558,0.88127 0.67695,-0.0254 0.86732,-0.0664 1.34166,-0.28833 z m 16.85375,4.74085 c -1.57626,-0.19538 -3.37965,-0.81827 -4.63801,-1.60194 -0.80907,-0.50386 -1.8888,-1.53547 -2.37925,-2.27322 -0.70193,-1.05584 -1.17444,-2.69903 -1.17444,-4.08418 v -0.65479 l 2.68788,0.0217 2.6879,0.0217 0.0494,0.65658 c 0.18681,2.48695 1.5841,3.49931 4.66988,3.38341 1.3158,-0.0494 1.9272,-0.22614 2.48693,-0.71883 0.97953,-0.86222 0.98391,-2.58368 0.009,-3.43987 -0.50575,-0.44406 -1.57867,-0.91222 -3.7023,-1.61547 -3.00181,-0.99405 -4.3461,-1.62861 -5.65701,-2.67034 -2.13265,-1.69475 -2.98873,-4.22608 -2.32102,-6.86302 0.61937,-2.44604 2.96938,-4.4497 5.99632,-5.11259 2.86413,-0.62721 6.06808,-0.18451 8.18255,1.13063 1.7987,1.11875 2.86017,2.5653 3.38942,4.61908 0.16672,0.64698 0.22402,0.7865 0.2283,0.55596 l 0.005,-0.30778 h 1.39383 1.39384 l 0.0219,-2.07234 0.0219,-2.07234 2.60582,-0.0217 2.60581,-0.0217 v 2.09221 2.0922 l 1.53887,0.0223 1.53887,0.0223 0.0219,2.11338 0.0219,2.11339 h -1.56077 -1.56077 l 0.004,4.57556 c 0.002,2.51657 0.0346,4.73615 0.0725,4.93242 0.0973,0.5035 0.24128,0.61433 0.84842,0.65299 0.43518,0.0278 1.62118,-0.12829 2.1327,-0.28053 0.13429,-0.04 0.14363,0.10081 0.14363,2.16498 v 2.20771 l -0.75918,0.17325 c -2.28478,0.5214 -3.96707,0.43106 -5.33586,-0.28653 -0.98762,-0.51776 -1.75431,-1.54863 -2.06904,-2.78198 -0.23724,-0.92968 -0.28661,-2.07807 -0.28802,-6.70023 l -0.002,-4.65764 h -1.39524 -1.39524 v -1.02591 -1.02592 h -2.66234 -2.66235 l -0.0425,-0.34881 c -0.0234,-0.19184 -0.0644,-0.54674 -0.0911,-0.78865 -0.18387,-1.66405 -1.10596,-2.50596 -2.97676,-2.71789 -0.86282,-0.0977 -1.94803,0.005 -2.59426,0.24764 -0.56817,0.21259 -1.12854,0.70661 -1.36726,1.2054 -0.25567,0.53417 -0.26506,1.32809 -0.0212,1.79045 0.47416,0.89903 1.43896,1.41805 4.5388,2.4417 1.15106,0.38011 2.49627,0.88147 2.98933,1.11412 3.62412,1.71004 5.22235,4.21518 4.87636,7.64346 -0.31143,3.08598 -2.60341,5.27476 -6.27358,5.99115 -1.0341,0.20184 -3.22342,0.28383 -4.23405,0.15855 z m 28.29295,0.002 c -2.2459,-0.35435 -3.89105,-1.69431 -4.60039,-3.74695 -0.49646,-1.4366 -0.49133,-1.34725 -0.49133,-8.5607 v -6.60688 l 2.60582,-0.0217 2.60581,-0.0217 6.2e-4,6.05403 c 3.9e-4,3.7673 0.0326,6.25127 0.0854,6.57619 0.22664,1.39673 1.03648,1.99743 2.49934,1.85386 1.16162,-0.114 1.96324,-0.48477 2.42436,-1.12133 l 0.24301,-0.33547 v -6.51248 -6.5125 h 2.62633 2.62634 v 9.35633 9.35632 h -2.50322 -2.50323 v -0.28725 c 0,-0.30315 -0.0817,-0.36239 -0.23876,-0.17315 -0.14853,0.17898 -0.86927,0.46015 -1.51291,0.59022 -0.72159,0.14583 -3.20025,0.21832 -3.86714,0.11309 z m 18.62738,-0.0305 c -1.43333,-0.28136 -2.32361,-0.77068 -3.44707,-1.89462 -1.84129,-1.84207 -2.67459,-4.25632 -2.67611,-7.75319 -0.002,-2.28919 0.31616,-3.84098 1.11669,-5.46382 0.98689,-2.00063 2.55832,-3.37965 4.39294,-3.85505 1.7346,-0.44948 4.7371,-0.24541 5.52661,0.37561 l 0.21651,0.1703 v -3.90443 -3.90442 h 2.62633 2.62633 v 13.00858 13.00857 h -2.42115 -2.42116 v -0.36933 c 0,-0.40677 -0.0637,-0.45222 -0.28734,-0.20508 -0.21772,0.24058 -0.898,0.53594 -1.60033,0.69481 -0.83869,0.18971 -2.89118,0.24145 -3.65225,0.0921 z m 3.61588,-4.65321 c 0.50737,-0.18983 0.92726,-0.52039 1.28155,-1.00891 l 0.23214,-0.32009 v -3.56194 c 0,-4.01935 0.0364,-3.77685 -0.66262,-4.40538 -0.57912,-0.52068 -1.29683,-0.74185 -2.24579,-0.69203 -1.57706,0.0828 -2.5176,1.07016 -2.93198,3.078 -0.14427,0.69905 -0.16081,1.01483 -0.12596,2.40513 0.0436,1.74196 0.12755,2.20077 0.5585,3.05448 0.43886,0.86938 1.14292,1.44697 1.97904,1.62353 0.50351,0.10633 1.38062,0.0272 1.91512,-0.17279 z m -104.094119,-4.89507 0.02087,-9.3358 h 2.503227 2.503226 l -0.02094,0.26756 -0.02095,0.26755 0.342148,-0.24785 c 0.460924,-0.33389 0.994024,-0.4793 2.119911,-0.57821 1.028949,-0.0904 1.802682,-0.0172 2.569048,0.2433 l 0.427596,0.14532 0.02181,2.37132 c 0.01199,1.30423 0.0066,2.41098 -0.01201,2.45944 -0.02383,0.0621 -0.236388,0.0576 -0.719429,-0.0151 -2.185151,-0.32883 -3.695636,0.0447 -4.291337,1.06117 l -0.210669,0.35948 v 6.16878 6.16879 h -2.626683 -2.626685 z" /></g></svg>
