<?xml version="1.0" encoding="UTF-8" standalone="no"?>
<!-- Created with Inkscape (http://www.inkscape.org/) -->

<svg
   width="45mm"
   height="38.005657mm"
   viewBox="0 0 45 38.005657"
   version="1.1"
   id="svg1"
   xml:space="preserve"
   sodipodi:docname="1 white.svg"
   xmlns:inkscape="http://www.inkscape.org/namespaces/inkscape"
   xmlns:sodipodi="http://sodipodi.sourceforge.net/DTD/sodipodi-0.dtd"
   xmlns="http://www.w3.org/2000/svg"
   xmlns:svg="http://www.w3.org/2000/svg"><sodipodi:namedview
     id="namedview1"
     pagecolor="#ffffff"
     bordercolor="#000000"
     borderopacity="0.25"
     inkscape:showpageshadow="2"
     inkscape:pageopacity="0.0"
     inkscape:pagecheckerboard="0"
     inkscape:deskcolor="#d1d1d1"
     inkscape:document-units="mm"
     showgrid="false" /><defs
     id="defs1" /><path
     style="fill:#ffffff;stroke-width:0.61893"
     d="m 3.1115597,11.075355 c 0.207155,-0.51895 0.463541,-1.34151 0.592885,-1.90217 0.196133,-0.85015 0.193695,-2.5952 -0.0049,-3.50709 C 3.2393077,3.552923 2.1087945,2.015158 0.5153402,1.334873 0.2319074,1.213866 1e-7,1.067508 1e-7,1.009631 1e-7,0.843714 0.8068253,0.323145 1.3299323,0.15154 1.6951634,0.031728 2.0342874,-0.003396 2.7904837,2.55e-4 c 0.880045,0.0044 1.063502,0.03182 1.723535,0.258744 1.478786,0.508482 2.420151,1.154243 4.760235,3.265466 0.451401,0.407256 0.9786423,0.863985 1.1716463,1.014947 0.456789,0.357298 1.489692,0.889973 1.86071,0.959583 0.16038,0.0301 0.291601,0.0818 0.291601,0.11499 0,0.0332 -0.28623,0.14323 -0.636066,0.24461 -0.898702,0.26043 -2.3736403,0.8534 -3.3958803,1.36524 -1.856211,0.92942 -3.288993,1.91893 -4.704171,3.24879 -0.448842,0.42178 -0.786586,0.69302 -0.750546,0.60273 z"
     id="path39" /><path
     style="fill:#ffffff;stroke-width:0.61893"
     d="m 19.792331,31.648605 c -0.193867,-0.21422 -0.171462,-0.55429 0.04658,-0.70702 0.499346,-0.34975 1.011606,0.14884 0.717508,0.69837 -0.111806,0.20891 -0.578078,0.21419 -0.764086,0.009 z"
     id="path31" /><path
     style="fill:#ffffff;stroke-width:0.61893"
     d="m 15.373935,34.749815 c -1.976945,-0.34824 -3.854939,-1.05825 -5.351537,-2.02325 l -0.5650353,-0.36433 1.3263503,-0.65874 1.326351,-0.65873 0.839108,0.20674 c 1.140262,0.28094 2.18026,0.44135 3.547518,0.54718 1.440535,0.1115 1.997363,0.20864 2.188729,0.38183 0.199136,0.18022 0.189711,0.31997 -0.03206,0.4753 -0.146381,0.10253 -0.438155,0.12777 -1.477314,0.12777 -1.198979,0 -1.294906,0.0111 -1.294906,0.14983 0,0.6036 1.886313,1.04256 3.631731,0.84513 0.462686,-0.0523 1.163197,-0.17388 1.556692,-0.27009 0.584846,-0.14301 0.738408,-0.15588 0.841249,-0.0705 0.472443,0.39209 -0.54803,0.98465 -2.277742,1.32263 -1.078886,0.2108 -3.029382,0.20588 -4.259138,-0.0108 z"
     id="path30" /><path
     style="fill:#ffffff;stroke-width:0.61893"
     d="m 27.760488,35.374695 c -0.695106,-0.24804 -1.754573,-1.27183 -2.730469,-2.6385 -0.467422,-0.65459 -1.314236,-2.22923 -1.642968,-3.05506 -0.124982,-0.31399 -0.164299,-0.34823 -0.355628,-0.30975 -1.423747,0.28638 -2.174442,0.33446 -5.221565,0.33446 -1.715326,0 -3.32826,-0.03 -3.584299,-0.0667 l -0.465525,-0.0667 0.740365,-0.66382 c 1.462401,-1.3112 2.512268,-2.74841 3.103629,-4.24871 0.08932,-0.2266 0.149549,-0.412 0.133844,-0.412 -0.0157,0 -0.225627,0.26502 -0.466495,0.58894 -0.56582,0.76091 -2.296412,2.54601 -3.217409,3.31875 -2.236263,1.87626 -5.5286523,3.49103 -7.7799863,3.81575 -1.08473,0.15645 -1.644477,-0.0375 -1.751274,-0.60673 -0.163082,-0.86929 0.986204,-3.35222 2.49118,-5.38199 2.278786,-3.0734 5.3766913,-5.10816 8.0952893,-5.31712 0.376669,-0.0289 0.667716,-0.0804 0.64677,-0.11427 -0.02095,-0.0338 -0.342975,-0.10473 -0.715619,-0.15743 -0.750165,-0.1061 -1.740476,-0.0232 -2.531829,0.21172 -0.826875,0.24556 -2.412376,1.12788 -3.2342343,1.79986 l -0.328292,0.26841 -0.246219,-0.20245 c -1.214976,-0.99903 -2.885122,-0.97135 -4.02084,0.0666 -1.292816,1.18156 -1.415438,3.11192 -0.348353,5.48375 l 0.202396,0.44987 -0.164183,0.37086 c -0.0903,0.20397 -0.301592,0.75501 -0.469533,1.22453 l -0.305343,0.85366 -0.417846,-0.52537 c -0.8556895,-1.07588 -1.8838377,-3.14174 -2.3854993,-4.79318 -1.3040739,-4.29292 -0.6756428,-8.55695 1.7720523,-12.02369 0.683089,-0.96748 2.682407,-2.97976 3.62408,-3.64756 2.805445,-1.98956 6.2474423,-3.32246 9.7765313,-3.7859 1.412002,-0.18542 4.815771,-0.12313 6.360658,0.11641 4.29363,0.66575 9.199913,1.98691 11.545694,3.10903 1.591265,0.76118 2.319193,1.28547 3.821278,2.75224 1.201152,1.17291 1.399342,1.33244 2.010789,1.61847 0.693317,0.32432 1.242067,0.50236 1.088668,0.35322 -0.04514,-0.0439 -0.352194,-0.29479 -0.682341,-0.55755 -0.358987,-0.28572 -0.874455,-0.82697 -1.2824,-1.34656 -0.775379,-0.98757 -1.804154,-2.00615 -2.597232,-2.57146 -1.73474,-1.23656 -4.758871,-2.44497 -8.487637,-3.39156 l -1.723533,-0.43754 0.844483,-0.005 c 3.327475,-0.0161 7.431877,1.22608 10.107129,3.05894 1.147009,0.78582 2.488674,2.20984 3.134391,3.32677 0.122921,0.21262 0.501781,0.59499 0.935168,0.94383 0.791185,0.63685 1.36436,1.37547 1.522177,1.96155 0.127318,0.47283 0.06114,1.13118 -0.143023,1.42288 -0.09189,0.13128 -0.189796,0.43793 -0.217567,0.68146 -0.103283,0.90569 -1.227059,2.50465 -3.005539,4.27643 -2.135388,2.12735 -4.445466,3.74708 -7.409858,5.1955 -0.876642,0.42833 -1.197061,0.62324 -1.165966,0.70927 0.108531,0.30024 0.136455,2.80799 0.03985,3.5786 -0.292738,2.33513 -1.184283,4.20548 -2.129841,4.46814 -0.366594,0.10183 -0.389414,0.10081 -0.768075,-0.0343 z m -5.067285,-7.25549 c 3.248517,-0.4458 5.750914,-1.19129 8.597269,-2.5612 3.06475,-1.47502 5.372781,-3.11413 7.550429,-5.36212 1.148266,-1.18536 2.300646,-2.72437 2.150985,-2.87264 -0.05346,-0.053 -4.164341,-0.53378 -5.356455,-0.6265 -0.550332,-0.0428 -1.89221,-0.0787 -2.98195,-0.0797 -2.752455,-0.002 -4.649624,0.26017 -6.429416,0.89048 -0.382743,0.13555 -0.708638,0.23371 -0.724209,0.21813 -0.01557,-0.0156 0.290396,-0.20203 0.67993,-0.41437 0.389533,-0.21234 0.693169,-0.40114 0.674744,-0.41956 -0.06497,-0.065 -2.053002,0.54906 -2.835432,0.87578 -1.592128,0.66482 -3.209147,1.7055 -4.054843,2.60961 l -0.389826,0.41676 v 0.76596 c 0,1.32742 -0.47592,2.65432 -1.550377,4.32255 l -0.12761,0.19813 1.392986,-0.0533 c 0.766142,-0.0293 1.485319,-0.0752 1.598169,-0.10182 0.132503,-0.0313 0.04528,0.0576 -0.246219,0.25107 -0.643028,0.42675 -1.393477,0.79494 -2.339081,1.14761 -0.999095,0.37262 -1.089448,0.41755 -1.374926,0.68382 -0.168565,0.15723 -0.199813,0.22878 -0.123109,0.2819 0.193766,0.1342 4.597566,0.006 5.888941,-0.17058 z m 2.298044,-12.44251 c 0,-1.02852 1.228017,-1.54338 2.020852,-0.84726 l 0.278123,0.24419 0.122643,-0.29352 c 0.156554,-0.37469 0.154608,-0.57597 -0.0089,-0.92054 -0.411605,-0.8674 -1.994145,-1.5802 -4.09555,-1.8447 -1.183605,-0.14899 -3.966057,-0.0581 -4.986447,0.1628 -1.125575,0.24372 -2.119649,0.62078 -2.494305,0.94613 l -0.315849,0.27428 0.196148,0.21031 c 0.271576,0.29119 1.351718,0.79942 2.443819,1.14988 1.300273,0.41724 3.115126,0.73771 5.813554,1.02653 1.057056,0.11313 1.025913,0.11642 1.025912,-0.1081 z"
     id="path29" /><path
     style="fill:#ffffff;stroke-width:0.61893"
     d="m 15.192942,37.207505 c -2.953046,-0.31145 -6.1125943,-1.58305 -8.6065683,-3.46381 -0.304696,-0.22978 -0.553996,-0.44328 -0.553996,-0.47444 0,-0.0312 0.175434,-0.0812 0.38985,-0.11106 0.214416,-0.0299 0.785764,-0.15029 1.269662,-0.2675 l 0.879817,-0.21313 0.638535,0.41524 c 2.1549933,1.40138 4.2545973,2.25686 6.6284123,2.70075 1.068655,0.19984 3.839154,0.24044 4.912039,0.072 1.184405,-0.18595 2.267751,-0.47355 3.45472,-0.91713 0.538305,-0.20117 1.030255,-0.34599 1.093224,-0.32183 0.06342,0.0243 0.102769,0.12575 0.08821,0.22738 -0.06968,0.48645 -2.755901,1.65625 -4.827546,2.1023 -1.502016,0.3234 -3.704459,0.42651 -5.366362,0.25124 z"
     id="path28" /><rect
     style="fill:none;stroke-width:1.69545"
     id="rect1"
     width="45.707314"
     height="40.52953"
     x="-1.0712652"
     y="-3.2137957" /><rect
     style="fill:none;stroke-width:1.69545"
     id="rect9"
     width="44.278961"
     height="40.172443"
     x="-0.53563261"
     y="-1.6068978"
     ry="19.550591" /><rect
     style="fill:none;stroke-width:1.69545"
     id="rect10"
     width="44.814594"
     height="40.52953"
     x="-0.89272094"
     y="-1.2498094"
     ry="19.550591" /><rect
     style="fill:none;stroke-width:1.69545"
     id="rect11"
     width="44.457504"
     height="39.458267"
     x="-0.35708839"
     y="-1.2498094"
     ry="19.550591" /><rect
     style="fill:none;stroke-width:1.69545"
     id="rect39"
     width="44.457504"
     height="39.815353"
     x="-1.0712652"
     y="-0.71417677"
     ry="19.550591"
     clip-path="none" /></svg>
