<?xml version="1.0" encoding="UTF-8" standalone="no"?>
<!-- Created with Inkscape (http://www.inkscape.org/) -->

<svg
   width="210mm"
   height="297mm"
   viewBox="0 0 210 297"
   version="1.1"
   id="svg1"
   xml:space="preserve"
   xmlns:inkscape="http://www.inkscape.org/namespaces/inkscape"
   xmlns:sodipodi="http://sodipodi.sourceforge.net/DTD/sodipodi-0.dtd"
   xmlns="http://www.w3.org/2000/svg"
   xmlns:svg="http://www.w3.org/2000/svg"><sodipodi:namedview
     id="namedview1"
     pagecolor="#ffffff"
     bordercolor="#000000"
     borderopacity="0.25"
     inkscape:showpageshadow="2"
     inkscape:pageopacity="0.0"
     inkscape:pagecheckerboard="0"
     inkscape:deskcolor="#d1d1d1"
     inkscape:document-units="mm" /><defs
     id="defs1" /><g
     inkscape:label="Capa 1"
     inkscape:groupmode="layer"
     id="layer1"><path
       id="path8"
       style="fill:#000000;stroke-width:3.01077"
       d="m 149.30656,94.400274 c -3.45821,-0.381433 -9.60393,2.574877 -14.82108,7.128936 -2.28328,1.99303 -6.19962,6.59455 -8.1838,9.61674 -0.96653,1.4721 -2.52132,4.25234 -3.45556,6.17829 -1.91256,3.94216 -1.60297,3.74157 -4.37507,2.82855 -3.68311,-1.21306 -10.90568,-2.68835 -16.0611,-3.28126 -4.681087,-0.53837 -15.557014,-0.4105 -19.469987,0.23181 -16.125516,2.64095 -28.750342,10.61897 -36.063191,22.78708 -2.207896,3.67436 -3.909154,8.56298 -4.277048,12.29594 -0.153128,1.55373 -0.244113,1.74413 -1.476506,3.05881 -2.422655,2.58459 -3.460225,5.06699 -3.460225,8.28493 0,2.13548 0.416398,3.43273 1.448501,4.51043 0.411173,0.42927 0.598253,0.84148 0.497875,1.10311 -0.286806,0.74742 0.142048,2.40138 0.989523,3.80874 l 0.829274,1.37693 -1.053317,0.16949 c -0.824654,0.13335 -1.332131,0.459 -2.329115,1.49518 -1.199541,1.24679 -1.312523,1.30649 -1.912146,0.99885 -1.000915,-0.51349 -2.535053,-0.41386 -3.496012,0.23815 -0.479135,0.32291 -1.135639,1.15042 -1.501399,1.89192 l -0.648793,1.31627 -0.809047,-0.33764 c -1.669354,-0.69756 -3.295517,0.30616 -4.124574,2.54693 -0.259378,0.70101 -0.495418,1.30833 -0.524322,1.35049 -0.0289,0.0421 -0.749382,-0.15748 -1.602533,-0.44497 -1.954645,-0.65852 -2.852036,-0.65879 -4.146357,0.001 -1.129122,0.57611 -1.755346,1.68133 -1.755006,3.09927 2.16e-4,0.90283 0.921649,3.01287 2.50804,5.74734 1.04202,1.79592 4.588332,8.29109 10.752524,19.68936 4.890809,9.04374 5.533237,10.1383 6.189194,10.56583 1.280931,0.83484 18.759984,8.01772 27.327061,11.23014 3.104429,1.16409 6.394655,2.12941 8.538537,2.50494 v 0.001 c 0.3505,0.0602 3.678387,0.0809 7.393429,0.0115 3.715184,-0.0538 21.43852,-0.19359 39.38338,-0.3096 31.78755,-0.20563 32.69112,-0.224 35.05034,-0.74525 1.3319,-0.29415 4.02735,-0.88219 5.99004,-1.30537 1.96266,-0.42317 6.78049,-1.51401 10.70585,-2.42561 3.92546,-0.91012 9.03057,-2.07923 11.34375,-2.59358 2.31318,-0.51437 4.51799,-1.09569 4.89939,-1.29139 1.53646,-0.78851 1.53471,-1.22041 -0.0669,-10.7136 -3.08543,-18.28879 -6.84699,-30.37214 -13.75376,-44.18788 -5.84237,-11.68521 -10.99737,-19.00464 -20.65556,-29.33099 -3.52993,-3.77418 -3.90922,-4.44354 -4.69557,-8.24915 -0.85622,-4.14543 -1.22985,-8.74818 -1.07509,-13.27458 0.21904,-6.40203 1.11221,-11.42083 3.42599,-19.24593 0.64255,-2.17296 1.21644,-4.486435 1.27426,-5.140555 0.0941,-1.066171 0.015,-1.285226 -0.75614,-2.126856 -0.68099,-0.743085 -1.09673,-0.966404 -1.99773,-1.065759 z m -4.05766,4.319055 c 0.09,0.0052 0.15506,0.0277 0.19292,0.06846 0.0975,0.105143 0.0362,0.24041 -0.13534,0.301836 -0.95225,0.340638 -5.90855,4.352295 -8.13869,6.587495 -5.08453,5.09619 -8.54004,10.49744 -12.38618,19.35951 -1.07351,2.47424 -0.87166,2.44348 -5.92935,0.93352 -3.93496,-1.17474 -11.01594,-2.64617 -15.1665,-3.1506 -3.55472,-0.43059 -15.1815,-0.39834 -18.354432,0.015 -5.603534,0.77179 -11.224874,2.39305 -15.549224,4.48087 -12.165767,5.87768 -20.532626,15.36153 -22.186513,25.15043 -0.278164,1.64647 -0.167126,2.24486 0.707916,3.82898 0.04811,0.087 -0.462604,0.29686 -1.134218,0.46518 -0.930417,0.23304 -1.531309,0.62556 -2.525156,1.64921 -1.621605,1.67044 -2.255438,3.34813 -2.248213,5.94962 0.0027,1.01411 -0.01836,1.84524 -0.04666,1.84524 -0.22382,0 -1.404329,-1.70005 -1.530963,-2.20467 -0.488171,-1.94503 0.797523,-5.06445 2.867446,-6.95623 0.776045,-0.70939 1.517202,-1.2898 1.646092,-1.2898 0.128886,0 0.233365,-0.45132 0.233365,-1.00196 0,-5.8224 2.985773,-12.90445 7.850851,-18.62673 7.582304,-8.91702 18.569911,-14.47567 31.789252,-16.07978 3.364718,-0.40651 12.519288,-0.46625 16.115557,-0.0271 6.20622,0.68416 14.18873,2.44132 18.27819,4.025 1.27242,0.49275 2.49404,0.95492 2.71653,1.02687 0.29695,0.0961 0.52764,-0.19509 0.86662,-1.09844 0.25383,-0.67627 1.12533,-2.6364 1.93704,-4.35639 3.72594,-7.89412 9.644,-14.94176 15.98485,-19.0359 1.45749,-0.941166 2.99888,-1.662278 3.80562,-1.826582 v 0.0016 c 0.13449,-0.0274 0.24924,-0.03945 0.33919,-0.03423 z m 16.5543,5.663321 c -0.0505,0.10971 -0.069,0.2321 -0.003,0.35163 5.8e-4,-0.11716 0.004,-0.2344 0.003,-0.35163 z m -48.19887,7.61901 v 0.001 c 0.0571,0.0271 0.10631,0.0675 0.16647,0.0871 0.005,0.001 0.0108,0.003 0.0157,0.003 0.0172,-0.0115 0.0154,-0.0301 0.0142,-0.0451 -0.0296,-0.0151 -0.0591,-0.0271 -0.0887,-0.0404 -0.0292,-0.0115 -0.0702,-0.003 -0.10738,-0.005 z m 3.03548,32.87838 c 4.39795,-0.23665 10.23386,0.70079 15.96464,2.89544 9.65175,3.69476 18.79456,11.55064 17.85811,15.3423 -0.25326,1.02537 -1.38375,2.04389 -2.70564,2.43645 -4.76659,1.4156 -13.8082,0.0415 -21.82398,-3.31707 -9.35699,-3.92044 -16.60657,-9.67697 -16.63366,-13.20766 -0.0189,-2.50219 2.94244,-3.9127 7.34053,-4.14946 z m -21.056961,4.82782 c 0.333877,-0.0301 0.679964,-0.0181 1.028425,0.0374 4.086816,0.65353 4.523756,6.17941 0.574111,7.25805 -1.219029,0.33338 -1.04756,0.33622 -2.246657,-0.0871 -1.307848,-0.46643 -1.859707,-1.01097 -2.364903,-2.33379 -0.510551,-1.33688 -0.35146,-2.40606 0.532104,-3.56448 0.576412,-0.75595 1.475438,-1.21975 2.47692,-1.31002 z m 2.62162,13.61995 1.020642,0.18065 c 5.697789,1.01114 12.788989,3.5218 16.977509,6.01026 4.18912,2.4888 9.56866,7.07976 12.91516,11.02169 1.78337,2.0993 4.97845,6.57844 4.81226,6.74464 -0.0473,0.0473 -0.64885,-0.17252 -1.33648,-0.487 -1.05106,-0.48088 -1.6974,-0.57264 -4.05456,-0.57565 -2.55829,-0.003 -2.9438,0.0587 -4.39685,0.72969 -1.61074,0.74398 -3.25535,2.25244 -3.96277,3.63293 -0.62461,1.21871 -1.0153,3.49233 -0.9024,5.26346 0.0863,1.35442 0.33475,2.13436 1.28825,4.05299 2.58153,5.19488 7.29598,10.22414 13.45505,14.35121 4.88949,3.27755 12.50532,6.4399 17.88302,7.42769 3.55987,0.65399 10.49214,0.61212 13.85334,-0.0904 1.42662,-0.29685 2.6505,-0.43497 2.77876,-0.31273 0.36411,0.3475 -0.5012,1.43277 -1.69434,2.12684 -2.61157,1.5193 -7.23907,2.77803 -11.79028,3.20662 v -0.001 c -3.04287,0.28813 -3.2281,0.28783 -6.62794,-0.003 -4.38278,-0.37498 -9.83704,-1.90797 -13.76621,-3.87097 -8.22741,-4.10863 -15.03937,-10.89407 -19.12926,-19.05146 -1.57231,-3.13475 -2.39787,-3.37886 -2.4069,-0.70635 -0.002,0.66595 -0.11668,1.21047 -0.25517,1.21047 -0.36922,0 -1.20528,-1.42084 -3.53179,-6.00406 -3.12027,-6.14739 -3.58734,-6.4736 -8.70657,-6.08184 l -3.047925,0.23334 -1.599421,-2.799 c -2.005895,-3.51161 -3.067381,-4.61507 -4.714245,-4.89628 -1.53126,-0.26134 -7.296207,-0.16079 -10.649832,0.18516 -4.096418,0.4225 -9.320734,1.45509 -12.355057,2.44269 -2.079307,0.67674 -3.046542,0.87313 -3.695157,0.75149 -1.46348,-0.27457 -7.740426,-3.54147 -10.587602,-5.51083 -3.468061,-2.39881 -8.205063,-7.09835 -9.622971,-9.54672 -1.04121,-1.7982 -1.579403,-3.11169 -1.171559,-2.85969 0.866029,0.53531 4.687464,0.98165 8.373618,0.97864 6.740958,-0.005 12.878912,-1.0792 22.813521,-3.98299 6.974369,-2.03859 9.900224,-2.67171 13.134536,-2.84722 3.574083,-0.1939 5.027539,0.18726 7.004464,1.83745 1.849727,1.54412 2.632256,1.93506 3.970543,1.98684 2.388197,0.0923 2.779737,-1.76683 0.782598,-3.71538 z m -57.2135,14.33254 c 0.453061,-0.0689 1.228982,0.74321 3.802513,3.15218 4.651109,4.35381 7.850846,8.13805 8.98507,10.63116 0.694165,1.52587 1.037784,2.98517 0.865056,3.67338 -0.107489,0.42821 -0.340355,0.66125 -0.662795,0.66125 -0.368378,0 -0.720751,-0.47922 -1.356705,-1.84838 -1.364504,-2.93693 -4.452575,-6.45473 -9.734995,-11.08858 -1.682268,-1.47579 -3.157607,-2.77149 -3.278188,-2.87988 -0.120578,-0.10842 0.146504,-0.72915 0.594337,-1.38005 0.358058,-0.5204 0.513871,-0.87962 0.785707,-0.92108 z m -6.360341,2.31355 c 0.928682,0 8.672451,5.86287 11.273733,8.53545 2.059738,2.11584 3.74028,4.53591 3.74028,5.38637 0,0.88936 -0.275303,0.7377 -1.274245,-0.70012 -0.490704,-0.7063 -1.660639,-1.90524 -2.598279,-2.66362 -1.812883,-1.46607 -6.854999,-4.80642 -10.343335,-6.852 -1.809834,-1.06133 -2.084527,-1.31166 -1.943263,-1.77056 0.29617,-0.96216 0.872274,-1.93552 1.145109,-1.93552 z m -5.604195,3.02773 1.067317,0.62079 c 0.587807,0.34168 2.617858,1.45402 4.510429,2.47222 6.412157,3.44956 11.726489,7.32483 11.726489,8.55257 0,0.20081 -0.0286,0.35586 -0.06379,0.34383 -0.377354,-0.13491 -15.716683,-7.58156 -16.761237,-8.13713 -1.280268,-0.67962 -1.394879,-0.81578 -1.333369,-1.53871 0.03707,-0.4362 0.244173,-1.13441 0.460532,-1.55278 z m -7.872629,3.34509 c 0.203498,0 1.794018,0.73109 3.533347,1.62586 1.739476,0.89476 5.398537,2.68651 8.132463,3.98145 12.644064,5.98915 12.745573,6.04512 12.745573,6.84884 0,0.24238 1.357698,2.78652 3.015249,5.65401 1.657698,2.86745 3.855224,6.70524 4.883831,8.52764 1.028752,1.82261 2.5777,4.51792 3.441555,5.99004 0.863855,1.47212 2.185039,3.76664 2.935899,5.09854 0.751012,1.33194 1.745489,2.99448 2.210873,3.69361 0.46553,0.69913 0.846385,1.41617 0.846385,1.59321 0,0.45805 -0.07875,0.43608 -3.186392,-0.84485 -1.542216,-0.6357 -4.925878,-2.00246 -7.519453,-3.03859 -9.698931,-3.87467 -13.048263,-5.36371 -13.51261,-6.0056 -0.248148,-0.34302 -2.198603,-3.83517 -4.334619,-7.76061 -2.135866,-3.92566 -4.198087,-7.7115 -4.583549,-8.4125 -0.385459,-0.701 -1.532957,-2.8231 -2.548494,-4.71582 -1.015684,-1.89145 -1.931338,-3.5564 -2.035059,-3.69671 -0.103724,-0.14035 -0.851421,-1.51661 -1.661654,-3.05881 -0.810381,-1.54222 -1.679089,-3.09808 -1.930819,-3.45711 -0.667445,-0.95208 -0.896855,-2.0226 -0.432526,-2.0226 z m 69.493872,1.27423 0.728141,0.88372 c 0.842265,1.0218 2.548255,4.12271 2.364899,4.29728 -0.06832,0.0653 -2.419127,0.25469 -5.223007,0.42008 -5.018573,0.29595 -11.654173,1.01616 -14.402562,1.56365 -3.143639,0.62621 -5.799584,1.31572 -6.911113,1.7939 -1.11212,0.47841 -2.042184,1.5456 -1.67099,1.9168 0.09331,0.0934 2.034344,-0.19721 4.312834,-0.64565 6.5335,-1.28603 8.541012,-1.48326 25.044617,-2.45984 8.487865,-0.50225 8.107905,-0.51785 9.115765,0.36719 0.8783,0.77116 2.18928,3.20331 1.8888,3.50379 -0.094,0.0939 -3.35387,0.20895 -7.244059,0.25531 -7.661431,0.0929 -18.924617,0.64238 -25.427361,1.24003 -2.243073,0.20622 -4.713323,0.44436 -5.489058,0.52899 l -1.411164,0.15414 -0.700132,-1.28668 c -0.385198,-0.70775 -1.177471,-1.68371 -1.759675,-2.16733 l -1.057983,-0.87906 1.512292,-0.75925 c 4.665828,-2.34506 11.09157,-3.67034 21.268556,-4.38441 2.03277,-0.14264 3.847084,-0.25981 4.031222,-0.26132 0.223821,-0.001 0.308426,-0.27699 0.255164,-0.83082 l -0.07936,-0.82926 -3.631368,0.0404 c -5.970786,0.0669 -13.804174,1.33629 -18.640713,3.01991 -1.437509,0.50036 -3.870368,1.54211 -5.4066,2.31512 -2.554755,1.28549 -2.919468,1.39853 -4.255266,1.32869 l -1.459393,-0.0762 1.705216,-1.41272 c 3.900797,-3.23037 9.317516,-5.25356 17.666747,-6.59526 4.994991,-0.80348 7.55189,-1.03699 11.388869,-1.03931 z m -40.540946,9.78787 c 0.130333,-0.0333 0.280604,-0.0319 0.451199,0.003 0.227466,0.0466 0.490398,0.15234 0.793485,0.31892 1.403176,0.77111 3.806369,1.52905 5.49373,1.73167 0.806156,0.0969 1.465615,0.28934 1.465615,0.42785 0,0.13822 0.131665,0.16951 0.292497,0.0702 0.742279,-0.45875 1.889427,-0.21767 2.732083,0.57409 0.472448,0.44393 0.779697,0.93443 0.683022,1.09068 -0.09913,0.16047 -0.03177,0.2526 0.155596,0.21317 0.182331,-0.0385 0.370385,0.18847 0.418528,0.50409 0.04813,0.31553 0.181939,0.57255 0.297162,0.57255 0.261995,0 1.029977,1.88383 1.029977,2.52674 0,0.31892 -0.340055,0.61253 -1.025311,0.88682 -2.054068,0.82193 -6.056152,0.1707 -9.090868,-1.48119 -2.225278,-1.21123 -4.512668,-4.45954 -4.364178,-6.19383 0.06277,-0.73375 0.27648,-1.14452 0.667463,-1.24472 z m 93.43072,0.7484 c 0.21656,-0.21648 2.06886,0.86393 4.26305,2.48627 2.7654,2.04478 5.73737,4.55443 10.81786,9.13597 2.24309,2.02285 4.12684,3.71535 4.18526,3.76052 h 0.001 c 0.0572,0.0451 0.0477,0.13462 -0.0129,0.19901 -0.43276,0.43273 -7.00996,-3.70534 -11.34685,-7.13826 -4.51176,-3.57146 -8.51096,-7.84108 -7.90843,-8.44363 z m -98.764194,0.1945 c -0.210603,0.041 -0.482317,0.3011 -0.482317,0.53212 0,0.1689 0.146686,0.14963 0.388965,-0.0516 0.213704,-0.17764 0.337012,-0.37617 0.272263,-0.44029 -0.0442,-0.0443 -0.108721,-0.0542 -0.178929,-0.0404 z m 6.438134,1.38317 c -0.06034,0.0602 0.03426,0.28421 0.211596,0.49786 0.454598,0.54805 0.577988,0.48802 0.208496,-0.10899 -0.171133,-0.27427 -0.359744,-0.44918 -0.420081,-0.38896 z m 8.91972,1.7021 c -1.152623,0.0746 -1.183625,0.0994 -1.244683,0.96929 -0.07253,1.03345 0.236646,1.50959 1.468729,2.26067 0.488079,0.29746 0.911787,0.54091 0.941292,0.54143 0.02951,5.4e-4 0.288251,-0.25021 0.574111,-0.557 0.669106,-0.71822 0.66164,-1.74122 -0.01866,-2.60607 -0.467325,-0.59283 -0.694433,-0.67486 -1.720782,-0.60832 z m 46.68969,0.97705 c 0.57017,0.009 1.18493,0.0727 1.36293,0.18668 0.48383,0.31049 4.50707,6.97223 7.34831,12.16833 0.53664,0.98142 1.6315,2.93107 2.43336,4.33306 4.10783,7.18252 6.93561,12.72501 6.69173,13.11433 -0.31931,0.51003 -2.21565,0.66385 -2.60605,0.21949 -0.15843,-0.18275 -1.29849,-2.16788 -2.53294,-4.41086 -2.84719,-5.17349 -10.07585,-18.41929 -11.06058,-20.26657 -0.41106,-0.77113 -1.19365,-2.21907 -1.73944,-3.21753 -0.54595,-0.99866 -0.99264,-1.88802 -0.99264,-1.97593 0,-0.11171 0.52516,-0.15897 1.09532,-0.15084 z m -4.79204,0.11988 0.90084,1.783 c 1.02342,2.0271 1.9834,3.80468 5.85625,10.83497 1.50589,2.73392 3.82533,6.97808 5.15455,9.43161 3.14002,5.79624 3.77775,6.94045 4.09346,7.33899 0.15655,0.1969 0.16959,0.42054 0.0311,0.55541 -0.12724,0.12404 -7.57408,0.28454 -16.54653,0.3563 -8.972438,0.0716 -16.779174,0.20324 -17.347794,0.29415 -1.207336,0.19269 -1.213141,0.18909 -2.54227,-2.29955 -1.11173,-2.08153 -1.44266,-2.66962 -4.084122,-7.26119 -1.087768,-1.89082 -2.802706,-4.93121 -3.810293,-6.75553 -3.1834,-5.76471 -3.515637,-6.35636 -4.08412,-7.26895 -0.843989,-1.35448 -2.417801,-4.45812 -2.417801,-4.76869 0,-0.4374 0.642397,-0.57843 3.794731,-0.83706 1.628105,-0.13362 4.33734,-0.35788 6.019608,-0.49788 5.390568,-0.44857 13.091676,-0.79107 19.118362,-0.84949 z m -29.194083,3.85692 c -0.21816,-0.0115 -0.41072,0.10383 -0.606784,0.32051 -0.22376,0.24718 -0.406077,0.58171 -0.406077,0.7437 0,0.16197 1.108391,2.21752 2.462921,4.56798 1.35438,2.35046 3.604115,6.28107 4.998964,8.7346 1.394996,2.45351 2.713235,4.66177 2.929678,4.90716 0.449283,0.50941 0.898965,0.55453 1.605642,0.18215 0.715384,-0.38284 0.61478,-0.96718 -0.485425,-2.81142 -0.538448,-0.90245 -1.81691,-3.13126 -2.840995,-4.95386 -1.023937,-1.82263 -2.928899,-5.09966 -4.231929,-7.28142 -1.887876,-3.1599 -2.771508,-4.36879 -3.425995,-4.40929 z m -53.001795,0.79505 c 0.04404,0.0934 0.08616,0.16016 0.140029,0.21316 -0.04677,-0.071 -0.09102,-0.14391 -0.140029,-0.21316 z m 34.413983,0.31273 c 0.01926,-0.0762 0.77261,0.22911 1.706772,0.68924 1.845826,0.90801 3.633046,1.32216 5.713105,1.34425 0.05763,-0.0151 0.122842,-0.0241 0.196031,-0.0241 0.08738,-0.001 0.04445,3.5e-4 0.130691,-0.001 0.10209,-0.003 0.203679,-0.005 0.304949,-0.0211 0.08466,-0.0151 0.164959,-0.0436 0.244263,-0.0762 0.08704,-0.0301 0.171764,-0.0596 0.253597,-0.10114 0.108506,-0.0512 0.216774,-0.10265 0.32984,-0.14308 0.07491,-0.0271 0.152858,-0.0484 0.230263,-0.0702 0.05488,-0.0478 0.125306,-0.0921 0.213163,-0.12918 0.123086,-0.0518 0.251519,-0.0913 0.379627,-0.12919 0.105959,-0.0328 0.209822,-0.0699 0.315839,-0.10265 0.0899,-0.0344 0.181309,-0.065 0.272263,-0.0964 0.112244,-0.0397 0.225417,-0.0751 0.339179,-0.11042 0.10167,-0.0388 0.21307,-0.0464 0.31428,-0.0856 0.05458,-0.0211 0.03038,-0.009 0.0778,-0.031 0.100166,-0.0428 0.190582,-0.0615 0.270727,-0.0639 0.17887,-0.005 0.301774,0.078 0.346959,0.193 0.102251,0.0486 0.20431,0.13133 0.281597,0.29868 0.03713,0.0803 0.07319,0.15926 0.102692,0.24266 0.03813,0.10469 0.08944,0.20413 0.136935,0.30495 0.06021,0.13636 0.132926,0.26676 0.182031,0.40763 0.05398,0.13635 0.106185,0.27367 0.158698,0.41073 0.06238,0.15987 0.120034,0.32222 0.177365,0.48389 0.06581,0.18065 0.135546,0.35943 0.21003,0.53677 0.07564,0.1692 0.154994,0.33699 0.234929,0.50408 0.07292,0.12403 0.146293,0.24749 0.228698,0.36564 0.08963,0.11945 0.174867,0.24085 0.252062,0.36875 0.08797,0.14481 0.171734,0.29295 0.252062,0.44186 0.07061,0.13062 0.13861,0.26284 0.205364,0.39516 0.07215,0.14662 0.14106,0.29416 0.214697,0.44033 0.05876,0.12346 0.112903,0.24959 0.174265,0.37185 0.06185,0.11044 0.123558,0.22221 0.175798,0.3376 0.05299,0.11315 0.102186,0.22733 0.15403,0.34076 0.06539,0.13734 0.136892,0.27097 0.200698,0.40916 0.06906,0.14482 0.148069,0.28602 0.217828,0.43099 0.06961,0.13821 0.135733,0.2767 0.206931,0.41386 0.07738,0.15777 0.167668,0.3093 0.245828,0.46676 0.06075,0.12074 0.117027,0.24388 0.189828,0.35783 0.08223,0.13305 0.174747,0.25983 0.262931,0.38897 0.09891,0.14783 0.191966,0.29927 0.250495,0.46832 0.03016,0.0874 0.0454,0.16228 0.04824,0.23183 l 0.725028,1.30535 c 0.41298,0.74258 1.097885,1.98277 1.521629,2.75388 0.423742,0.77113 0.928421,1.62813 1.121771,1.90435 0.492415,0.70427 0.438125,1.34397 -0.141589,1.6539 -1.021378,0.54673 -3.843884,0.27758 -6.260765,-0.59747 -3.03449,-1.09861 -3.806108,-1.52437 -4.541543,-2.51425 -0.338702,-0.45582 -2.146559,-3.46867 -4.017223,-6.6933 -1.870667,-3.22371 -3.722227,-6.37426 -4.113683,-6.99668 -0.386029,-0.61466 -0.688532,-1.17649 -0.697023,-1.27581 z m 46.446975,0.42629 c -0.23707,-0.0181 -0.46844,0.0211 -0.66746,0.13391 -0.531103,0.29716 -0.54188,1.32373 -0.0187,1.8468 0.22029,0.22009 0.61396,0.40139 0.87439,0.40139 0.53824,0 1.27424,-0.64547 1.27424,-1.11711 0,-0.65134 -0.75133,-1.21283 -1.4625,-1.26491 z m -60.586597,7.27517 c -0.649952,0.0636 -0.801833,0.20143 -0.869725,0.7935 -0.04516,0.39402 0.05994,0.88794 0.233394,1.09688 0.18736,0.22581 0.635823,0.34886 1.103102,0.30339 0.649953,-0.0636 0.800274,-0.20141 0.868167,-0.79348 0.11233,-0.97964 -0.377454,-1.49361 -1.334922,-1.40029 z m 11.146152,5.09232 c -0.608972,0.0699 -0.717249,0.19871 -0.717249,0.84796 0,0.71636 0.17038,0.84943 2.677628,2.1004 2.73883,1.36656 3.692131,1.5435 4.171249,0.77792 0.405961,-0.64849 -0.582735,-1.55916 -2.607614,-2.40379 -0.930201,-0.38806 -1.94182,-0.86307 -2.248211,-1.05486 -0.30639,-0.19208 -0.881184,-0.31133 -1.275803,-0.26765 z m 13.696204,5.82205 c 0.04341,-0.003 0.163456,0.0943 0.392075,0.29084 1.58041,1.35882 7.180195,2.78369 9.062861,2.30579 0.77665,-0.19841 1.1886,-0.21466 1.422053,-0.005 0.180707,0.14994 0.328286,0.19209 0.328286,0.0948 0,-0.0975 0.15379,-0.0241 0.340735,0.16348 0.186938,0.18698 0.339174,0.53255 0.339174,0.76859 0,0.33903 -0.09864,0.37842 -0.471421,0.17734 -0.648993,-0.34733 -1.841525,0.24808 -1.944824,0.97085 -0.195729,1.36997 1.293291,2.33844 2.255995,1.46717 0.274762,-0.24868 0.500985,-0.64514 0.500985,-0.88059 0,-0.722 0.340382,-0.82146 0.788817,-0.224 0.703631,0.93284 0.202173,1.8879 -1.173115,2.2342 v 10e-4 c -1.319807,0.33232 -1.758314,0.32491 -3.950319,-0.0825 -1.96648,-0.36419 -3.479722,-0.84624 -4.273935,-1.36293 -0.517247,-0.3364 -3.139284,-4.47375 -3.550468,-5.60107 -0.07629,-0.20925 -0.110309,-0.31382 -0.0669,-0.3174 z m 43.662001,1.64454 c -0.19965,-0.0482 -0.39963,-0.0376 -0.57879,0.005 -0.73718,0.23395 -0.95265,1.30162 -0.3874,1.92618 0.83467,0.92231 2.15796,0.49794 2.15796,-0.69236 0,-0.54489 -0.59282,-1.09378 -1.19177,-1.23848 z m -17.565623,0.46829 c -0.600059,-0.0431 -1.560741,-0.0301 -3.17395,0.0151 -2.078352,0.0602 -3.901332,0.18577 -4.051448,0.2785 -0.37429,0.23122 -0.345362,1.29164 0.04513,1.61187 0.175257,0.14392 0.606348,0.32236 0.956852,0.39673 1.048933,0.2225 6.571604,-0.0377 7.128932,-0.33606 0.620877,-0.33227 0.671684,-1.08857 0.108907,-1.65077 -0.174567,-0.17433 -0.414506,-0.27309 -1.014417,-0.31583 z m -41.625379,14.15984 c 0.02016,0.14723 0.09418,0.18336 0.217829,0.10899 -0.07289,-0.0358 -0.144969,-0.0732 -0.217829,-0.10899 z" /><path
       style="fill:#34bcd0;fill-opacity:1;stroke:none;stroke-width:6.408"
       d="m 312.62868,878.25 c -0.77959,-1.2375 -4.55426,-7.875 -8.38817,-14.75 -3.8339,-6.875 -15.86312,-28.25 -26.73159,-47.5 -23.2283,-41.14148 -23.24157,-41.16736 -21.82955,-42.57937 2.32007,-2.32008 69.24692,-6.697 108.21017,-7.07679 l 21.38955,-0.20849 2.47662,4.93232 c 3.79041,7.54883 52.10626,96.2729 55.43173,101.79123 1.61045,2.6724 2.73113,5.05587 2.49039,5.2966 -0.32935,0.32935 -97.88617,2.10126 -127.40478,2.31403 -3.31641,0.0239 -4.53228,-0.45421 -5.64437,-2.21953 z m 33.11326,-7.34698 c 3.66256,-0.55428 5.42024,-4.29775 3.24728,-6.91601 -1.66782,-2.0096 -29.65837,-2.18064 -32.37005,-0.19781 -2.62219,1.9174 -1.20045,6.55225 2.24142,7.30698 1.45168,0.31832 3.08941,0.71858 3.63941,0.88947 1.2658,0.39329 18.92467,-0.42928 23.24194,-1.08263 z M 413.8,869.3 c 0.66,-0.66 1.2,-2.37 1.2,-3.8 0,-1.43 -0.54,-3.14 -1.2,-3.8 -1.54692,-1.54692 -6.05308,-1.54692 -7.6,0 -1.69346,1.69345 -1.48921,4.82295 0.45499,6.97126 1.89057,2.08906 5.37782,2.39593 7.14501,0.62874 z m -96,-16 c 0.66,-0.66 1.2,-1.94418 1.2,-2.85374 0,-0.90955 -5.00212,-10.38205 -11.11581,-21.05 -25.67075,-44.79354 -29.70032,-50.72417 -33.61943,-49.4803 -3.23373,1.02635 -3.63051,3.94678 -1.18698,8.73649 2.79627,5.48116 31.71181,56.00112 35.25589,61.59755 2.11504,3.33984 3.28836,4.25 5.47887,4.25 1.5331,0 3.32746,-0.54 3.98746,-1.2 z M 385,793.5 c 1.1,-1.1 2,-2.45 2,-3 0,-1.84429 -3.97621,-5 -6.3,-5 -4.52064,0 -6.24712,4.63297 -3.04501,8.17126 2.15639,2.38278 4.85386,2.31989 7.34501,-0.17126 z"
       id="path224"
       transform="scale(0.26458333)" /><path
       style="fill:#34bcd0;fill-opacity:1;stroke:none;stroke-width:6.408"
       d="m 235,866.71107 c -4.25092,-1.45984 -65.97624,-26.65135 -75.12494,-30.6602 -5.84371,-2.56065 -11.53988,-5.64463 -12.65815,-6.8533 C 144.98678,826.78717 80,708.18617 80,706.52658 c 0,-0.56462 0.3375,-1.03286 0.75,-1.04054 0.891406,-0.0166 50.99348,24.134 73.67616,35.51396 l 15.9457,8 5.14725,10 c 5.2915,10.28023 38.13775,67.85954 53.22529,93.30366 4.66489,7.86701 8.31826,14.44291 8.11861,14.6131 -0.19966,0.17018 -1.03801,0.0776 -1.86301,-0.20569 z m -17.61057,-19.78351 c 0.33187,-0.86485 0.13666,-2.44454 -0.43379,-3.51044 C 215.44974,840.60332 198.7967,832.5 194.51998,832.5 191.29372,832.5 191,832.74465 191,835.43191 c 0,3.44375 2.64299,5.61665 12.16751,10.00335 7.16489,3.29993 13.28196,3.94179 14.22192,1.4923 z m -62.32369,-25.46274 c 2.70193,-1.44603 2.60099,-6.53763 -0.15888,-8.01467 -1.15123,-0.61612 -3.17623,-0.84837 -4.5,-0.51613 -1.95748,0.4913 -2.40686,1.24473 -2.40686,4.03534 0,4.65159 3.09483,6.62062 7.06574,4.49546 z M 169.8125,750.5625 c 0.25,-0.75 -0.125,-1.125 -0.875,-0.875 -0.72188,0.24062 -1.50938,1.02812 -1.75,1.75 -0.25,0.75 0.125,1.125 0.875,0.875 0.72187,-0.24063 1.50937,-1.02813 1.75,-1.75 z"
       id="path225"
       transform="scale(0.26458333)" /><path
       style="fill:#34bcd0;fill-opacity:1;stroke:none;stroke-width:6.408"
       d="m 264,851.97689 c -15.83415,-3.53362 -22.59654,-7.53905 -28.28844,-16.7555 C 229.05323,824.44006 207,786.80223 207,786.21989 c 0,-0.27827 3.30088,0.77579 7.33528,2.34236 10.56258,4.10146 19.22445,4.80362 25.57203,2.07297 7.19741,-3.09625 8.91188,-2.83763 10.7049,1.61478 2.19283,5.44518 11.4513,23.47507 21.04285,40.9787 8.13343,14.84271 9.24056,17.59974 7.49956,18.67574 -2.18801,1.35226 -9.26813,1.38611 -15.15462,0.0725 z"
       id="path226"
       transform="scale(0.26458333)" /><path
       style="fill:#34bcd0;fill-opacity:1;stroke:none;stroke-width:6.408"
       d="m 217,778.90851 c -12.08413,-3.20749 -21.06265,-9.65664 -26.68243,-19.16561 -2.69462,-4.55944 -3.44383,-10.51665 -1.5596,-12.40088 0.87261,-0.8726 2.61673,-0.49822 7.14389,1.53345 7.36822,3.30666 22.16342,6.87875 27.733,6.69574 3.13016,-0.10285 4.89178,0.50104 7.25,2.48535 3.92546,3.30306 3.98759,4.59902 0.15107,3.1509 -2.01936,-0.76223 -3.85202,-0.80654 -5.75,-0.13906 -2.40831,0.84696 -2.78593,1.51179 -2.78593,4.9048 0,3.46181 0.51778,4.31997 4.38724,7.2713 l 4.38724,3.34626 2.30861,-2.16882 c 1.26973,-1.19285 2.44811,-3.57578 2.61861,-5.29538 L 236.51171,766 l 2.24415,4.21016 c 1.23427,2.31559 2.24414,4.92605 2.24414,5.80103 0,4.1109 -13.35419,5.72304 -24,2.89732 z m -21.87083,-23.67935 c -1.66487,-1.66486 -2.60779,-0.0108 -1.05822,1.85632 0.93717,1.12923 1.47919,1.26409 1.755,0.43667 0.21948,-0.65843 -0.0941,-1.69028 -0.69678,-2.29299 z"
       id="path227"
       transform="scale(0.26458333)" /><path
       style="fill:#34bcd0;fill-opacity:1;stroke:none;stroke-width:4.53114"
       d="m 272.58966,881.07888 c -10.96648,-2.55145 -12.66979,-3.43548 -16.22294,-8.41979 -3.50121,-4.91145 -9.7746,-15.33968 -9.43331,-15.68097 0.12407,-0.12407 2.15263,0.69931 4.50791,1.82974 8.16003,3.91643 16.57664,5.76749 26.91751,5.91994 6.49523,0.0957 9.64441,0.41912 10.42982,1.07095 1.99071,1.65214 1.32489,2.70589 -1.66028,2.62761 -3.41789,-0.0896 -6.40698,2.35128 -6.40698,5.23196 0,2.4092 2.27021,5.33554 4.59111,5.91805 2.65457,0.66626 5.97303,-1.31423 6.48414,-3.86979 0.55877,-2.79381 1.32022,-3.14341 2.66495,-1.22354 1.52124,2.17187 1.39159,3.59497 -0.48195,5.29014 -3.82865,3.46415 -10.39093,3.86473 -21.38998,1.3057 z"
       id="path264"
       transform="scale(0.26458333)" /><path
       style="fill:#34bcd0;fill-opacity:1;stroke:none;stroke-width:1.602"
       d="m 462.63457,879.01763 c -0.54474,-0.20356 -1.18629,-0.6283 -1.42569,-0.94387 -0.79111,-1.04285 -7.04914,-12.13374 -14.14786,-25.07376 -19.09846,-34.81398 -45.61056,-83.61699 -46.71661,-85.99516 -0.39424,-0.84766 -0.49753,-1.3265 -0.32358,-1.5 0.35932,-0.35836 6.61484,-0.2952 7.90954,0.0799 0.86367,0.2502 1.25661,0.58816 2.16316,1.86052 4.75486,6.67347 15.81313,25.25301 26.96475,45.30478 2.67643,4.8125 7.00157,12.51875 9.61142,17.125 14.04064,24.78099 24.3303,44.74808 24.3303,47.21297 0,1.12831 -2.13064,2.01476 -5.25,2.18428 -1.5084,0.082 -2.41239,0.008 -3.11543,-0.25462 z"
       id="path265"
       transform="scale(0.26458333)" /></g></svg>
